<svg width="16" height="16" xmlns="http://www.w3.org/2000/svg" class="bi bi-person" fill="currentColor">

  <path id="svg_1" d="m8,8a4,4 0 1 0 0,-8a4,4 0 0 0 0,8zm2.66667,-4a2.66667,2.66667 0 1 1 -5.33333,0a2.66667,2.66667 0 0 1 5.33333,0zm5.33333,10.66666c0,1.33333 -1.33333,1.33333 -1.33333,1.33333l-13.33333,0s-1.33333,0 -1.33333,-1.33333s1.33333,-5.33333 8,-5.33333s8,4 8,5.33333zm-1.33333,-0.00533c-0.00133,-0.328 -0.20533,-1.31467 -1.10933,-2.21867c-0.86933,-0.86933 -2.50533,-1.776 -5.55733,-1.776c-3.05333,0 -4.688,0.90667 -5.55733,1.776c-0.904,0.904 -1.10667,1.89067 -1.10933,2.21867l13.33333,0z"/>
</svg>